<svg aria-hidden="true" style="position: absolute; width: 0; height: 0; overflow: hidden;" version="1.1" xmlns="http://www.w3.org/2000/svg" xmlns:xlink="http://www.w3.org/1999/xlink">
<defs>
<symbol id="icon-arrow" viewBox="0 0 56 32">
<path fill="none" stroke="#fff" style="stroke: var(--color1, #fff)" stroke-linejoin="round" stroke-linecap="round" stroke-miterlimit="4" stroke-width="8" d="M4 4l24 24 24-24"></path>
</symbol>
<symbol id="icon-thermometer" viewBox="0 0 21 32">
<path fill="#fff" style="fill: var(--color1, #fff)" d="M4.348 5.797c0-1.537 0.611-3.012 1.698-4.099s2.562-1.698 4.099-1.698c1.537 0 3.012 0.611 4.099 1.698s1.698 2.562 1.698 4.099v7.616c1.773 1.234 3.105 3.002 3.803 5.046s0.726 4.257 0.079 6.318c-0.647 2.061-1.934 3.861-3.675 5.139s-3.844 1.968-6.004 1.968-4.263-0.689-6.004-1.968c-1.741-1.278-3.028-3.079-3.675-5.139s-0.619-4.274 0.079-6.318c0.698-2.044 2.031-3.811 3.803-5.046v-7.616zM6.006 15.79c-1.266 0.881-2.219 2.144-2.718 3.604s-0.519 3.041-0.057 4.513 1.381 2.758 2.625 3.672c1.244 0.913 2.746 1.406 4.289 1.406s3.046-0.492 4.289-1.406c1.244-0.913 2.163-2.2 2.625-3.672s0.442-3.053-0.057-4.513c-0.499-1.46-1.451-2.722-2.717-3.604l-1.241-0.865v-9.128c0-0.769-0.305-1.506-0.849-2.050s-1.281-0.849-2.050-0.849c-0.769 0-1.506 0.305-2.050 0.849s-0.849 1.281-0.849 2.050v9.128l-1.241 0.865zM8.696 16.125v-10.328h2.899v10.328c1.363 0.356 2.55 1.196 3.339 2.363s1.126 2.582 0.949 3.979c-0.177 1.398-0.857 2.683-1.913 3.616s-2.415 1.45-3.824 1.454c-1.412 0.001-2.776-0.513-3.836-1.446s-1.743-2.221-1.921-3.621c-0.178-1.401 0.162-2.818 0.955-3.986s1.985-2.007 3.353-2.358zM10.145 24.638c0.769 0 1.506-0.305 2.050-0.849s0.849-1.281 0.849-2.050c0-0.769-0.305-1.506-0.849-2.050s-1.281-0.849-2.050-0.849c-0.769 0-1.506 0.305-2.050 0.849s-0.849 1.281-0.849 2.050c0 0.769 0.305 1.506 0.849 2.050s1.281 0.849 2.050 0.849z"></path>
</symbol>
<symbol id="icon-humidity" viewBox="0 0 32 32">
<path fill="#fff" style="fill: var(--color1, #fff)" d="M20.009 4.341c2.456-0.532 5.502-0.505 9.648 0.529 0.714 0.178 1.149 0.9 0.97 1.613s-0.902 1.146-1.617 0.968c-3.854-0.961-6.474-0.934-8.435-0.51-1.967 0.426-3.381 1.27-4.879 2.184l-0.112 0.068c-1.444 0.881-3.043 1.856-5.156 2.208-2.191 0.364-4.78 0.042-8.256-1.345-0.684-0.273-1.016-1.047-0.743-1.729s1.049-1.014 1.733-0.741c3.19 1.273 5.268 1.45 6.827 1.191 1.582-0.263 2.789-0.991 4.315-1.922 1.502-0.916 3.254-1.983 5.704-2.513z"></path>
<path fill="#fff" style="fill: var(--color1, #fff)" d="M29.656 10.191c-4.146-1.034-7.192-1.060-9.648-0.529-2.45 0.53-4.202 1.598-5.704 2.513-1.527 0.931-2.733 1.659-4.315 1.922-1.559 0.259-3.637 0.082-6.827-1.191-0.684-0.273-1.46 0.059-1.733 0.741s0.059 1.456 0.743 1.729c3.476 1.387 6.065 1.709 8.256 1.345 2.113-0.351 3.712-1.327 5.156-2.208l0.112-0.068c1.498-0.913 2.912-1.758 4.879-2.184 1.961-0.425 4.581-0.451 8.435 0.51 0.714 0.178 1.438-0.255 1.617-0.968s-0.256-1.435-0.97-1.613z"></path>
<path fill="#fff" style="fill: var(--color1, #fff)" d="M25.333 13.369c0.463 0 0.849 0.239 1.118 0.601 0.094 0.128 0.313 0.427 0.603 0.845 0.386 0.556 0.903 1.33 1.422 2.193 0.517 0.859 1.049 1.83 1.457 2.779 0.391 0.909 0.733 1.894 0.733 2.895-0 0.281-0.034 0.564-0.081 0.841-0.077 0.461-0.234 1.096-0.56 1.748-0.329 0.657-0.844 1.354-1.641 1.883-0.805 0.535-1.819 0.847-3.052 0.847s-2.247-0.311-3.052-0.847c-0.797-0.53-1.311-1.227-1.64-1.884-0.326-0.651-0.483-1.287-0.56-1.748-0.046-0.276-0.080-0.559-0.081-0.839-0.001-1 0.342-1.987 0.733-2.896 0.408-0.949 0.941-1.92 1.457-2.779 0.519-0.863 1.036-1.636 1.422-2.193 0.29-0.418 0.509-0.717 0.603-0.845 0.269-0.362 0.655-0.601 1.118-0.601zM27.483 20.834c-0.342-0.797-0.809-1.655-1.293-2.458-0.294-0.489-0.589-0.949-0.857-1.353-0.268 0.404-0.563 0.864-0.857 1.353-0.483 0.804-0.95 1.661-1.293 2.458l-0.019 0.045c-0.236 0.548-0.514 1.196-0.497 1.801 0.016 0.479 0.145 0.973 0.359 1.4 0.171 0.341 0.406 0.642 0.734 0.86 0.32 0.213 0.806 0.4 1.573 0.4s1.253-0.187 1.573-0.4c0.328-0.218 0.564-0.519 0.735-0.86 0.214-0.427 0.343-0.921 0.359-1.4 0.017-0.605-0.262-1.253-0.497-1.8l-0.019-0.045z"></path>
<path fill="#fff" style="fill: var(--color1, #fff)" d="M18.839 15.374c1.014-0.328 1.791 0.727 1.314 1.678-0.218 0.435-0.463 0.804-0.95 0.976-1.303 0.46-2.382 1.108-3.509 1.795l-0.112 0.068c-1.444 0.881-3.043 1.856-5.156 2.208-2.191 0.364-4.78 0.042-8.256-1.345-0.684-0.273-1.016-1.047-0.743-1.729s1.049-1.014 1.733-0.741c3.19 1.273 5.268 1.45 6.827 1.191 1.582-0.263 2.789-0.991 4.315-1.922 1.451-0.884 2.944-1.664 4.535-2.179z"></path>
</symbol>
<symbol id="icon-pressure" viewBox="0 0 32 32">
<path fill="#fff" style="fill: var(--color1, #fff)" d="M16 12c-0.736 0-1.333 0.597-1.333 1.333v7.023c-0.797 0.461-1.333 1.323-1.333 2.31 0 1.473 1.194 2.667 2.667 2.667s2.667-1.194 2.667-2.667c0-0.987-0.536-1.849-1.333-2.31v-7.023c0-0.736-0.597-1.333-1.333-1.333z"></path>
<path fill="#fff" style="fill: var(--color1, #fff)" d="M14.667 8c0-0.736 0.597-1.333 1.333-1.333s1.333 0.597 1.333 1.333c0 0.736-0.597 1.333-1.333 1.333s-1.333-0.597-1.333-1.333z"></path>
<path fill="#fff" style="fill: var(--color1, #fff)" d="M21.333 9.333c-0.736 0-1.333 0.597-1.333 1.333s0.597 1.333 1.333 1.333c0.736 0 1.333-0.597 1.333-1.333s-0.597-1.333-1.333-1.333z"></path>
<path fill="#fff" style="fill: var(--color1, #fff)" d="M8 17.333c-0.736 0-1.333-0.597-1.333-1.333s0.597-1.333 1.333-1.333c0.736 0 1.333 0.597 1.333 1.333s-0.597 1.333-1.333 1.333z"></path>
<path fill="#fff" style="fill: var(--color1, #fff)" d="M9.333 10.667c0 0.736 0.597 1.333 1.333 1.333s1.333-0.597 1.333-1.333c0-0.736-0.597-1.333-1.333-1.333s-1.333 0.597-1.333 1.333z"></path>
<path fill="#fff" style="fill: var(--color1, #fff)" d="M24 17.333c-0.736 0-1.333-0.597-1.333-1.333s0.597-1.333 1.333-1.333c0.736 0 1.333 0.597 1.333 1.333s-0.597 1.333-1.333 1.333z"></path>
<path fill="#fff" style="fill: var(--color1, #fff)" d="M16 30.667c8.1 0 14.667-6.567 14.667-14.667s-6.567-14.667-14.667-14.667c-8.1 0-14.667 6.566-14.667 14.667s6.566 14.667 14.667 14.667zM16 27.991c-6.622 0-11.991-5.369-11.991-11.991s5.368-11.991 11.991-11.991c6.622 0 11.991 5.368 11.991 11.991s-5.369 11.991-11.991 11.991z"></path>
</symbol>
<symbol id="icon-drop" viewBox="0 0 25 32">
<path fill="#fff" style="fill: var(--color1, #fff)" d="M13.106 0.848l-0.985-0.848-0.985 0.848c-0.53 0.394-11.136 9.636-11.136 17.818 0 3.215 1.277 6.298 3.55 8.571s5.356 3.55 8.571 3.55c3.215 0 6.298-1.277 8.571-3.55s3.55-5.356 3.55-8.571c0-8.182-10.606-17.424-11.136-17.818zM15.5 25.439l-1.348-2.712c0.755-0.377 1.39-0.956 1.834-1.673s0.68-1.544 0.681-2.387h3.030c-0.001 1.407-0.395 2.786-1.136 3.983s-1.801 2.162-3.061 2.79z"></path>
</symbol>

<symbol id="icon-navigation" viewBox="0 0 32 32">
<path fill="#fff" style="fill: var(--color1, #fff)" d="M0 15.766c0-8.707 7.059-15.766 15.766-15.766s15.766 7.059 15.766 15.766c0 8.707-7.059 15.766-15.766 15.766s-15.766-7.059-15.766-15.766zM13.693 10.917c-1.682 1.384-2.806 3.33-3.163 5.479l-1.183 7.114c-0.273 1.642 1.636 2.745 2.922 1.687l5.569-4.582c1.682-1.384 2.806-3.33 3.163-5.479l1.183-7.114c0.273-1.642-1.636-2.745-2.922-1.687l-5.569 4.582z"></path>
<path fill="#fff" style="fill: var(--color1, #fff)" d="M13.063 15.766c0-1.493 1.21-2.703 2.703-2.703s2.703 1.21 2.703 2.703c0 1.493-1.21 2.703-2.703 2.703s-2.703-1.21-2.703-2.703z"></path>
</symbol>
<symbol id="icon-point" viewBox="0 0 23 32">
<path fill="#fff" style="fill: var(--color1, #fff)" d="M11.429 0c-6.31 0-11.429 5.016-11.429 11.2 0 8.4 11.429 20.8 11.429 20.8s11.429-12.4 11.429-20.8c0-6.184-5.118-11.2-11.429-11.2zM11.429 15.2c-2.253 0-4.082-1.792-4.082-4s1.829-4 4.082-4c2.253 0 4.082 1.792 4.082 4s-1.829 4-4.082 4z"></path>
</symbol>
<symbol id="icon-settings" viewBox="0 0 32 32">
<path fill="#fff" style="fill: var(--color1, #fff)" d="M10.819 15.743c0-2.72 2.205-4.924 4.924-4.924s4.924 2.205 4.924 4.924-2.205 4.924-4.924 4.924c-2.72 0-4.924-2.205-4.924-4.924z"></path>
<path fill="#fff" style="fill: var(--color1, #fff)" d="M14.926 0.347c0.447-0.462 1.188-0.462 1.634 0l3.897 4.033h5.513c0.628 0 1.136 0.509 1.136 1.136v5.513l4.033 3.897c0.462 0.447 0.462 1.188 0 1.634l-4.033 3.897v5.513c0 0.628-0.509 1.136-1.136 1.136h-5.513l-3.897 4.033c-0.447 0.462-1.188 0.462-1.634 0l-3.897-4.033h-5.513c-0.628 0-1.136-0.509-1.136-1.136v-5.513l-4.033-3.897c-0.462-0.447-0.462-1.188 0-1.634l4.033-3.897v-5.513c0-0.628 0.509-1.136 1.136-1.136h5.513l3.897-4.033zM15.743 8.546c-3.975 0-7.197 3.222-7.197 7.197s3.222 7.197 7.197 7.197c3.975 0 7.197-3.222 7.197-7.197s-3.222-7.197-7.197-7.197z"></path>
</symbol>
<symbol id="icon-clock" viewBox="0 0 32 32">
<path fill="#fff" style="fill: var(--color1, #fff)" d="M30.714 15.357c0-8.482-6.876-15.357-15.357-15.357s-15.357 6.876-15.357 15.357c0 8.481 6.876 15.357 15.357 15.357s15.357-6.876 15.357-15.357zM14.002 6.324c0-0.748 0.607-1.355 1.355-1.355s1.355 0.607 1.355 1.355v9.034c0 0.467-0.241 0.901-0.637 1.149l-5.42 3.388c-0.635 0.397-1.471 0.204-1.867-0.431s-0.204-1.471 0.431-1.867l4.783-2.99v-8.283z"></path>
</symbol>
<symbol id="icon-clear-d" viewBox="0 0 32 32">
<path fill="#fff" style="fill: var(--color1, #fff)" d="M15.58 0c0.6 0 1.087 0.487 1.087 1.087v1.449c0 0.6-0.487 1.087-1.087 1.087s-1.087-0.487-1.087-1.087v-1.449c0-0.6 0.487-1.087 1.087-1.087z"></path>
<path fill="#fff" style="fill: var(--color1, #fff)" d="M15.58 7.246c-4.602 0-8.333 3.731-8.333 8.333s3.731 8.333 8.333 8.333c4.602 0 8.333-3.731 8.333-8.333s-3.731-8.333-8.333-8.333z"></path>
<path fill="#fff" style="fill: var(--color1, #fff)" d="M6.1 4.563c-0.424-0.425-1.113-0.425-1.537 0s-0.425 1.113 0 1.537l1.025 1.025c0.425 0.425 1.113 0.425 1.537 0s0.425-1.113 0-1.537l-1.025-1.025z"></path>
<path fill="#fff" style="fill: var(--color1, #fff)" d="M31.159 15.58c0 0.6-0.487 1.087-1.087 1.087h-1.449c-0.6 0-1.087-0.487-1.087-1.087s0.487-1.087 1.087-1.087h1.449c0.6 0 1.087 0.487 1.087 1.087z"></path>
<path fill="#fff" style="fill: var(--color1, #fff)" d="M26.596 6.1c0.424-0.424 0.424-1.113 0-1.537s-1.113-0.425-1.537 0l-1.025 1.025c-0.424 0.425-0.424 1.113 0 1.537s1.113 0.425 1.537 0l1.025-1.025z"></path>
<path fill="#fff" style="fill: var(--color1, #fff)" d="M15.58 27.536c0.6 0 1.087 0.487 1.087 1.087v1.449c0 0.6-0.487 1.087-1.087 1.087s-1.087-0.487-1.087-1.087v-1.449c0-0.6 0.487-1.087 1.087-1.087z"></path>
<path fill="#fff" style="fill: var(--color1, #fff)" d="M25.571 24.034c-0.424-0.424-1.113-0.424-1.537 0s-0.424 1.113 0 1.537l1.025 1.025c0.424 0.424 1.113 0.424 1.537 0s0.424-1.113 0-1.537l-1.025-1.025z"></path>
<path fill="#fff" style="fill: var(--color1, #fff)" d="M3.623 15.58c0 0.6-0.487 1.087-1.087 1.087h-1.449c-0.6 0-1.087-0.487-1.087-1.087s0.487-1.087 1.087-1.087h1.449c0.6 0 1.087 0.487 1.087 1.087z"></path>
<path fill="#fff" style="fill: var(--color1, #fff)" d="M7.125 25.571c0.425-0.424 0.425-1.113 0-1.537s-1.113-0.424-1.537 0l-1.025 1.025c-0.425 0.424-0.425 1.113 0 1.537s1.113 0.424 1.537 0l1.025-1.025z"></path>
</symbol>
<symbol id="icon-clouds-d" viewBox="0 0 32 32">
<path fill="#fff" style="fill: var(--color1, #fff)" d="M4.489 6.757l-0.347-0.337c-0.347-0.337-0.907-0.328-1.244 0l-0.009 0.009c-0.347 0.337-0.347 0.881 0 1.209l0.347 0.337c0.347 0.337 0.898 0.337 1.244 0l0.009-0.009c0.347-0.328 0.347-0.881 0-1.209z"></path>
<path fill="#fff" style="fill: var(--color1, #fff)" d="M1.787 12.249h-0.907c-0.489 0-0.88 0.38-0.88 0.855v0.009c0 0.475 0.391 0.855 0.88 0.855h0.898c0.498 0.009 0.889-0.371 0.889-0.846v-0.009c0-0.484-0.391-0.864-0.88-0.864z"></path>
<path fill="#fff" style="fill: var(--color1, #fff)" d="M9.787 3.657h-0.009c-0.498 0-0.889 0.38-0.889 0.855v0.829c0 0.475 0.391 0.855 0.88 0.855h0.009c0.498 0.009 0.889-0.371 0.889-0.846v-0.838c0-0.475-0.391-0.855-0.88-0.855z"></path>
<path fill="#fff" style="fill: var(--color1, #fff)" d="M16.667 6.429c-0.347-0.337-0.907-0.337-1.253-0.009l-0.347 0.337c-0.347 0.337-0.347 0.881 0 1.209l0.009 0.009c0.347 0.337 0.907 0.337 1.244 0l0.347-0.337c0.347-0.337 0.347-0.872 0-1.209z"></path>
<path fill="#fff" style="fill: var(--color1, #fff)" d="M9.778 7.931c-2.942 0-5.333 2.323-5.333 5.181 0 1.853 1.005 3.48 2.513 4.396 0.722-2.031 2.707-3.49 5.043-3.49 0.092 0 0.183 0.002 0.274 0.007 0.385-1.328 1.156-2.498 2.188-3.389-0.905-1.611-2.665-2.705-4.685-2.705z"></path>
<path fill="#fff" style="fill: var(--color1, #fff)" d="M2.889 19.796c0.347 0.337 0.907 0.337 1.253 0l0.347-0.337c0.347-0.337 0.338-0.881 0-1.209l-0.009-0.009c-0.347-0.337-0.907-0.337-1.253 0l-0.347 0.337c-0.338 0.345-0.338 0.881 0.009 1.218z"></path>
<path fill="#fff" style="fill: var(--color1, #fff)" d="M9.333 28.267h17.333c2.945 0 5.333-2.32 5.333-5.181 0-2.43-1.722-4.469-4.046-5.029 0.030-0.262 0.046-0.529 0.046-0.8 0-3.934-3.283-7.124-7.333-7.124-3.359 0-6.191 2.194-7.059 5.188-0.091-0.004-0.182-0.007-0.274-0.007-2.945 0-5.333 2.32-5.333 5.181 0 0.073 0.002 0.147 0.005 0.219-1.556 0.532-2.671 1.973-2.671 3.666 0 2.146 1.791 3.886 4 3.886z"></path>
</symbol>
<symbol id="icon-rainy" viewBox="0 0 32 32">
<path fill="#fff" style="fill: var(--color1, #fff)" opacity="0.8" d="M4.142 2.844l0.347 0.347c0.347 0.338 0.347 0.907 0 1.244l-0.009 0.009c-0.347 0.347-0.898 0.347-1.244 0l-0.347-0.347c-0.347-0.338-0.347-0.898 0-1.244l0.009-0.009c0.338-0.338 0.898-0.347 1.244 0z"></path>
<path fill="#fff" style="fill: var(--color1, #fff)" opacity="0.8" d="M0.88 8.844h0.907c0.489 0 0.88 0.391 0.88 0.889v0.009c0 0.489-0.391 0.88-0.889 0.871h-0.898c-0.489 0-0.88-0.391-0.88-0.88v-0.009c0-0.489 0.391-0.88 0.88-0.88z"></path>
<path fill="#fff" style="fill: var(--color1, #fff)" opacity="0.8" d="M9.778 0h0.009c0.489 0 0.88 0.391 0.88 0.88v0.862c0 0.489-0.391 0.88-0.889 0.871h-0.009c-0.489 0-0.88-0.391-0.88-0.88v-0.853c0-0.489 0.391-0.88 0.889-0.88z"></path>
<path fill="#fff" style="fill: var(--color1, #fff)" opacity="0.8" d="M15.413 2.844c0.347-0.338 0.907-0.338 1.253 0.009s0.347 0.898 0 1.244l-0.347 0.347c-0.338 0.347-0.898 0.347-1.244 0l-0.009-0.009c-0.347-0.338-0.347-0.898 0-1.244l0.347-0.347z"></path>
<path fill="#fff" style="fill: var(--color1, #fff)" opacity="0.8" d="M4.444 9.733c0-2.942 2.391-5.333 5.333-5.333 2.020 0 3.779 1.127 4.685 2.785-1.032 0.918-1.803 2.122-2.188 3.489-0.091-0.005-0.182-0.007-0.274-0.007-2.336 0-4.321 1.502-5.043 3.592-1.508-0.943-2.513-2.618-2.513-4.526z"></path>
<path fill="#fff" style="fill: var(--color1, #fff)" opacity="0.8" d="M4.142 16.613c-0.347 0.347-0.907 0.347-1.253 0s-0.347-0.898-0.009-1.253l0.347-0.347c0.347-0.347 0.907-0.347 1.253 0l0.009 0.009c0.338 0.338 0.347 0.898 0 1.244l-0.347 0.347z"></path>
<path fill="#fff" style="fill: var(--color1, #fff)" opacity="0.8" d="M26.667 25.333h-17.333c-2.209 0-4-1.791-4-4 0-1.743 1.115-3.226 2.671-3.774-0.003-0.075-0.005-0.15-0.005-0.226 0-2.945 2.388-5.333 5.333-5.333 0.092 0 0.183 0.002 0.274 0.007 0.868-3.082 3.7-5.34 7.059-5.34 4.050 0 7.333 3.283 7.333 7.333 0 0.278-0.015 0.553-0.046 0.823 2.323 0.576 4.046 2.675 4.046 5.177 0 2.945-2.388 5.333-5.333 5.333z"></path>
<path fill="#fff" style="fill: var(--color1, #fff)" opacity="0.8" d="M13.314 30.706l1.772-3.545c0.152-0.303 0.461-0.494 0.8-0.494 0.665 0 1.097 0.7 0.8 1.294l-1.772 3.545c-0.152 0.303-0.461 0.494-0.8 0.494-0.665 0-1.097-0.7-0.8-1.294z"></path>
<path fill="#fff" style="fill: var(--color1, #fff)" opacity="0.8" d="M17.314 30.706l1.772-3.545c0.152-0.303 0.461-0.494 0.8-0.494 0.665 0 1.097 0.7 0.8 1.294l-1.772 3.545c-0.152 0.303-0.461 0.494-0.8 0.494-0.665 0-1.097-0.7-0.8-1.294z"></path>
</symbol>
<symbol id="icon-rain-d" viewBox="0 0 32 32">
<path fill="#fff" style="fill: var(--color1, #fff)" opacity="0.9" d="M4.667 22.444h20.222c3.436 0 6.222-2.786 6.222-6.222 0-2.918-2.009-5.368-4.72-6.040 0.035-0.315 0.053-0.636 0.053-0.96 0-4.725-3.83-8.556-8.555-8.556-3.919 0-7.223 2.635-8.236 6.23-0.106-0.005-0.213-0.008-0.32-0.008-3.436 0-6.222 2.786-6.222 6.222 0 0.088 0.002 0.176 0.006 0.264-1.815 0.639-3.117 2.369-3.117 4.403 0 2.577 2.089 4.667 4.667 4.667z"></path>
<path fill="#fff" style="fill: var(--color1, #fff)" opacity="0.9" d="M8.423 24c-0.395 0-0.757 0.223-0.933 0.577l-2.068 4.135c-0.347 0.694 0.158 1.51 0.933 1.51 0.395 0 0.757-0.223 0.933-0.577l2.068-4.135c0.347-0.694-0.158-1.51-0.933-1.51z"></path>
<path fill="#fff" style="fill: var(--color1, #fff)" opacity="0.9" d="M13.089 24c0.776 0 1.28 0.816 0.933 1.51l-2.068 4.135c-0.177 0.354-0.538 0.577-0.933 0.577-0.776 0-1.28-0.816-0.933-1.51l2.068-4.135c0.177-0.353 0.538-0.577 0.933-0.577z"></path>
<path fill="#fff" style="fill: var(--color1, #fff)" opacity="0.9" d="M22.423 24c0.776 0 1.28 0.816 0.933 1.51l-2.068 4.135c-0.177 0.354-0.538 0.577-0.933 0.577-0.776 0-1.28-0.816-0.933-1.51l2.068-4.135c0.177-0.353 0.538-0.577 0.933-0.577z"></path>
<path fill="#fff" style="fill: var(--color1, #fff)" opacity="0.9" d="M17.756 24c0.776 0 1.28 0.816 0.933 1.51l-2.068 4.135c-0.177 0.354-0.538 0.577-0.933 0.577-0.776 0-1.28-0.816-0.933-1.51l2.068-4.135c0.177-0.353 0.538-0.577 0.933-0.577z"></path>
</symbol>
<symbol id="icon-rain-n" viewBox="0 0 32 32">
<path fill="#fff" style="fill: var(--color1, #fff); stroke-width: 1;" d="M 15.185 6.967 L 14.483 4.638 L 16.762 2.915 L 13.889 2.835 L 12.934 0.171 L 11.979 2.835 L 9.106 2.915 L 11.385 4.638 L 10.565 7.356 L 12.934 5.748 L 14.981 7.137 C 15.048 7.079 15.116 7.022 15.186 6.967 L 15.185 6.967 Z"></path>
<path fill="#fff" style="fill: var(--color1, #fff); stroke-width: 1;" d="M 24.618 2.937 L 23.141 4.047 L 23.672 5.806 L 22.141 4.767 L 20.61 5.806 L 21.141 4.047 L 19.664 2.937 L 21.52 2.893 L 22.141 1.161 L 22.763 2.893 L 24.619 2.937 L 24.618 2.937 Z"></path>
<path fill="#fff" style="fill: var(--color1, #fff); stroke-width: 1;" d="M 5.929 16.563 C 6.17 16.41 6.43 16.284 6.703 16.187 C 6.7 16.116 6.698 16.044 6.698 15.971 C 6.698 13.442 8.541 11.343 10.958 10.944 C 10.038 10.51 9.176 9.913 8.416 9.15 C 6.427 7.172 5.558 4.488 5.802 1.903 C 5.875 1.153 4.807 0.348 4.129 0.828 C 3.722 1.117 3.342 1.442 2.981 1.803 C -0.556 5.329 -0.556 11.057 2.981 14.582 C 3.85 15.458 4.856 16.118 5.929 16.562 L 5.929 16.563 Z"></path>
<path fill="#fff" style="fill: var(--color1, #fff); stroke-width: 1;" d="M 8.89 24.809 L 26.169 24.809 C 29.105 24.809 31.486 22.428 31.486 19.492 C 31.486 16.999 29.769 14.906 27.453 14.331 C 27.483 14.062 27.498 13.788 27.498 13.511 C 27.498 9.474 24.226 6.2 20.188 6.2 C 16.839 6.2 14.016 8.452 13.151 11.524 C 13.06 11.519 12.969 11.517 12.877 11.517 C 9.941 11.517 7.561 13.897 7.561 16.833 C 7.561 16.909 7.562 16.984 7.566 17.059 C 6.015 17.605 4.902 19.083 4.902 20.821 C 4.902 23.023 6.687 24.809 8.89 24.809 Z"></path>
<path fill="#fff" style="fill: var(--color1, #fff); stroke-width: 1;" d="M 11.1 25.575 C 10.705 25.575 10.343 25.798 10.167 26.152 L 8.099 30.287 C 7.752 30.981 8.257 31.797 9.032 31.797 C 9.427 31.797 9.789 31.574 9.965 31.22 L 12.033 27.085 C 12.38 26.391 11.875 25.575 11.1 25.575 Z"></path>
<path fill="#fff" style="fill: var(--color1, #fff); stroke-width: 1;" d="M 15.766 25.575 C 16.542 25.575 17.046 26.391 16.699 27.085 L 14.631 31.22 C 14.454 31.574 14.093 31.797 13.698 31.797 C 12.922 31.797 12.418 30.981 12.765 30.287 L 14.833 26.152 C 15.01 25.799 15.371 25.575 15.766 25.575 Z"></path>
<path fill="#fff" style="fill: var(--color1, #fff); stroke-width: 1;" d="M 25.1 25.575 C 25.876 25.575 26.38 26.391 26.033 27.085 L 23.965 31.22 C 23.788 31.574 23.427 31.797 23.032 31.797 C 22.256 31.797 21.752 30.981 22.099 30.287 L 24.167 26.152 C 24.344 25.799 24.705 25.575 25.1 25.575 Z"></path>
<path fill="#fff" style="fill: var(--color1, #fff); stroke-width: 1;" d="M 20.433 25.575 C 21.209 25.575 21.713 26.391 21.366 27.085 L 19.298 31.22 C 19.121 31.574 18.76 31.797 18.365 31.797 C 17.589 31.797 17.085 30.981 17.432 30.287 L 19.5 26.152 C 19.677 25.799 20.038 25.575 20.433 25.575 Z"></path>
</symbol>
<symbol id="icon-lightning" viewBox="0 0 32 32">
<path fill="#fff" style="fill: var(--color1, #fff)" opacity="0.6" d="M20.236 22.444h4.653c3.436 0 6.222-2.786 6.222-6.222 0-2.918-2.009-5.368-4.72-6.040 0.035-0.315 0.053-0.636 0.053-0.96 0-4.725-3.83-8.556-8.555-8.556-3.919 0-7.223 2.635-8.236 6.23-0.106-0.005-0.213-0.008-0.32-0.008-3.436 0-6.222 2.786-6.222 6.222 0 0.088 0.002 0.176 0.006 0.264-1.815 0.639-3.117 2.369-3.117 4.403 0 2.577 2.089 4.667 4.667 4.667h4.431l6.663-11.661c0.791-1.385 2.906-0.823 2.906 0.772v6.222h1.556c1.194 0 1.943 1.29 1.351 2.327l-1.337 2.339z"></path>
<path fill="#fff" style="fill: var(--color1, #fff)" opacity="0.6" d="M10.889 22.444l6.222-10.889v7.778h3.111l-6.222 10.889v-7.778h-3.111z"></path>
</symbol>
<symbol id="icon-night-lightning" viewBox="0 0 32 32">
<path fill="#fff" style="fill: var(--color1, #fff)" d="M5.862 16.619c0.252-0.16 0.524-0.292 0.81-0.393-0.003-0.075-0.005-0.15-0.005-0.226 0-2.647 1.929-4.844 4.458-5.262-0.963-0.454-1.865-1.079-2.66-1.877-2.082-2.071-2.991-4.88-2.736-7.585 0.076-0.785-1.041-1.627-1.751-1.125-0.426 0.303-0.824 0.643-1.202 1.021-3.701 3.689-3.701 9.685 0 13.373 0.911 0.918 1.963 1.609 3.086 2.073z"></path>
<path fill="#fff" style="fill: var(--color1, #fff)" d="M14.747 6.944l-0.702-2.329 2.279-1.723-2.873-0.080-0.955-2.664-0.955 2.664-2.873 0.080 2.279 1.723-0.82 2.718 2.369-1.608 2.047 1.389c0.067-0.058 0.135-0.115 0.205-0.17z"></path>
<path fill="#fff" style="fill: var(--color1, #fff)" d="M23.621 1.925l-1.477 1.11 0.531 1.759-1.531-1.039-1.531 1.039 0.531-1.759-1.477-1.11 1.856-0.044 0.621-1.732 0.622 1.732 1.856 0.044z"></path>
<path fill="#fff" style="fill: var(--color1, #fff)" d="M26.667 25.333h-3.988l1.146-2.005c0.508-0.889-0.134-1.995-1.158-1.995h-1.333v-5.333c0-1.367-1.813-1.849-2.491-0.661l-5.711 9.995h-3.798c-2.209 0-4-1.791-4-4 0-1.743 1.115-3.226 2.671-3.774-0.003-0.075-0.005-0.15-0.005-0.226 0-2.945 2.388-5.333 5.333-5.333 0.092 0 0.183 0.002 0.274 0.007 0.868-3.082 3.7-5.34 7.059-5.34 4.050 0 7.333 3.283 7.333 7.333 0 0.278-0.015 0.553-0.046 0.823 2.323 0.576 4.046 2.675 4.046 5.177 0 2.945-2.388 5.333-5.333 5.333z"></path>
<path fill="#fff" style="fill: var(--color1, #fff)" d="M14.667 25.333h2.667v6.667l5.333-9.333h-2.667v-6.667l-5.333 9.333z"></path>
</symbol>
<symbol id="icon-clouds-n" viewBox="0 0 32 32">
<path fill="#fff" style="fill: var(--color1, #fff)" d="M6.671 19.559c-0.286 0.101-0.558 0.233-0.81 0.393-1.123-0.465-2.174-1.156-3.086-2.073-3.701-3.689-3.701-9.685 0-13.373 0.379-0.378 0.776-0.719 1.202-1.021 0.71-0.501 1.827 0.34 1.751 1.125-0.256 2.705 0.653 5.514 2.736 7.585 0.795 0.798 1.697 1.423 2.66 1.877-2.529 0.418-4.458 2.614-4.458 5.262 0 0.076 0.002 0.151 0.005 0.226z"></path>
<path fill="#fff" style="fill: var(--color1, #fff)" d="M14.044 7.949l0.702 2.329c-0.069 0.056-0.137 0.112-0.205 0.17l-2.047-1.389-2.369 1.608 0.82-2.718-2.279-1.723 2.873-0.080 0.955-2.664 0.955 2.664 2.873 0.080-2.279 1.723z"></path>
<path fill="#fff" style="fill: var(--color1, #fff)" d="M22.144 6.368l1.477-1.11-1.856-0.044-0.622-1.732-0.621 1.732-1.856 0.044 1.477 1.11-0.531 1.759 1.531-1.039 1.531 1.039-0.531-1.759z"></path>
<path fill="#fff" style="fill: var(--color1, #fff)" d="M9.333 28.667h17.333c2.945 0 5.333-2.388 5.333-5.333 0-2.502-1.722-4.601-4.046-5.177 0.030-0.27 0.046-0.545 0.046-0.823 0-4.050-3.283-7.333-7.333-7.333-3.359 0-6.191 2.259-7.059 5.34-0.091-0.005-0.182-0.007-0.274-0.007-2.946 0-5.333 2.388-5.333 5.333 0 0.076 0.002 0.151 0.005 0.226-1.556 0.548-2.671 2.031-2.671 3.774 0 2.209 1.791 4 4 4z"></path>
</symbol>
<symbol id="icon-clear-n" viewBox="0 0 32 32">
<path fill="#fff" style="fill: var(--color1, #fff)" d="M24.353 4.495l-3.68 2.822 1.324 4.451-3.825-2.633-3.825 2.633 1.324-4.451-3.68-2.822 4.64-0.131 1.542-4.364 1.542 4.364 4.64 0.131zM29.444 14.545l-2.385 1.818 0.858 2.88-2.473-1.702-2.473 1.702 0.858-2.88-2.385-1.818 2.996-0.073 1.004-2.836 1.004 2.836 2.996 0.073zM26.127 21.745c1.207-0.116 2.502 1.6 1.731 2.691-0.465 0.655-0.96 1.265-1.571 1.847-5.687 5.716-14.895 5.716-20.567 0-5.687-5.673-5.687-14.895 0-20.567 0.582-0.582 1.193-1.105 1.847-1.571 1.091-0.771 2.807 0.524 2.691 1.731-0.393 4.16 1.004 8.48 4.204 11.665 3.185 3.2 7.491 4.596 11.665 4.204z"></path>
</symbol>
<symbol id="icon-night-rainy" viewBox="0 0 32 32">
<path fill="#fff" style="fill: var(--color1, #fff)" d="M4.142 2.844l0.347 0.347c0.347 0.338 0.347 0.907 0 1.244l-0.009 0.009c-0.347 0.347-0.898 0.347-1.244 0l-0.347-0.347c-0.347-0.338-0.347-0.898 0-1.244l0.009-0.009c0.338-0.338 0.898-0.347 1.244 0z"></path>
<path fill="#fff" style="fill: var(--color1, #fff)" d="M0.88 8.844h0.907c0.489 0 0.88 0.391 0.88 0.889v0.009c0 0.489-0.391 0.88-0.889 0.871h-0.898c-0.489 0-0.88-0.391-0.88-0.88v-0.009c0-0.489 0.391-0.88 0.88-0.88z"></path>
<path fill="#fff" style="fill: var(--color1, #fff)" d="M9.778 0h0.009c0.489 0 0.88 0.391 0.88 0.88v0.862c0 0.489-0.391 0.88-0.889 0.871h-0.009c-0.489 0-0.88-0.391-0.88-0.88v-0.853c0-0.489 0.391-0.88 0.889-0.88z"></path>
<path fill="#fff" style="fill: var(--color1, #fff)" d="M15.413 2.844c0.347-0.338 0.907-0.338 1.253 0.009s0.347 0.898 0 1.244l-0.347 0.347c-0.338 0.347-0.898 0.347-1.244 0l-0.009-0.009c-0.347-0.338-0.347-0.898 0-1.244l0.347-0.347z"></path>
<path fill="#fff" style="fill: var(--color1, #fff)" d="M4.444 9.733c0-2.942 2.391-5.333 5.333-5.333 2.020 0 3.779 1.127 4.685 2.785-1.032 0.918-1.803 2.122-2.188 3.489-0.091-0.005-0.182-0.007-0.274-0.007-2.336 0-4.321 1.502-5.043 3.592-1.508-0.943-2.513-2.619-2.513-4.526z"></path>
<path fill="#fff" style="fill: var(--color1, #fff)" d="M4.142 16.613c-0.347 0.347-0.907 0.347-1.253 0s-0.347-0.898-0.009-1.253l0.347-0.347c0.347-0.347 0.907-0.347 1.253 0l0.009 0.009c0.338 0.338 0.347 0.898 0 1.244l-0.347 0.347z"></path>
<path fill="#fff" style="fill: var(--color1, #fff)" d="M26.667 25.333h-17.333c-2.209 0-4-1.791-4-4 0-1.743 1.115-3.226 2.671-3.774-0.003-0.075-0.005-0.15-0.005-0.226 0-2.945 2.388-5.333 5.333-5.333 0.092 0 0.183 0.002 0.274 0.007 0.868-3.082 3.7-5.34 7.059-5.34 4.050 0 7.333 3.283 7.333 7.333 0 0.278-0.015 0.553-0.046 0.823 2.323 0.576 4.046 2.675 4.046 5.177 0 2.946-2.388 5.333-5.333 5.333z"></path>
<path fill="#fff" style="fill: var(--color1, #fff)" d="M13.314 30.706l1.772-3.544c0.152-0.303 0.461-0.494 0.8-0.494 0.665 0 1.097 0.7 0.8 1.294l-1.772 3.544c-0.152 0.303-0.461 0.494-0.8 0.494-0.665 0-1.097-0.7-0.8-1.294z"></path>
<path fill="#fff" style="fill: var(--color1, #fff)" d="M17.314 30.706l1.772-3.544c0.151-0.303 0.461-0.494 0.8-0.494 0.665 0 1.097 0.7 0.8 1.294l-1.772 3.544c-0.151 0.303-0.461 0.494-0.8 0.494-0.665 0-1.097-0.7-0.8-1.294z"></path>
</symbol>
</defs>
</svg>
